Coordinates
version=1
nRows=8
nColumns=63
inDegrees=yes

Units are S.I. units (second, meters, Newtons, ...)
If the header above contains a line with 'inDegrees', this indicates whether rotational values are in degrees (yes) or radians (no).

endheader
time	pelvis_tilt	pelvis_list	pelvis_rotation	pelvis_tx	pelvis_ty	pelvis_tz	hip_flexion_r	hip_adduction_r	hip_rotation_r	knee_angle_r	knee_angle_r_beta	ankle_angle_r	subtalar_angle_r	mtp_angle_r	hip_flexion_l	hip_adduction_l	hip_rotation_l	knee_angle_l	knee_angle_l_beta	ankle_angle_l	subtalar_angle_l	mtp_angle_l	L5_S1_Flex_Ext	L5_S1_Lat_Bending	L5_S1_axial_rotation	L4_L5_Flex_Ext	L4_L5_Lat_Bending	L4_L5_axial_rotation	L3_L4_Flex_Ext	L3_L4_Lat_Bending	L3_L4_axial_rotation	L2_L3_Flex_Ext	L2_L3_Lat_Bending	L2_L3_axial_rotation	L1_L2_Flex_Ext	L1_L2_Lat_Bending	L1_L2_axial_rotation	L1_T12_Flex_Ext	L1_T12_Lat_Bending	L1_T12_axial_rotation	Abs_r3	Abs_r2	Abs_r1	Abs_t1	Abs_t2	neck_flexion	neck_bending	neck_rotation	arm_flex_r	arm_add_r	arm_rot_r	elbow_flex_r	pro_sup_r	wrist_flex_r	wrist_dev_r	arm_flex_l	arm_add_l	arm_rot_l	elbow_flex_l	pro_sup_l	wrist_flex_l	wrist_dev_l
0.000000	-0.723178	-3.315820	93.538365	0.181035	0.672489	0.840385	5.607500	-2.883499	9.312040	2.838792	0.049546	21.680974	-3.784878	0.000000	7.156244	2.343376	7.946744	6.769350	0.118147	20.628139	-13.223927	0.000000	0.497631	-0.291060	-1.487813	0.924151	-0.387110	-1.580801	0.817558	-0.707684	-1.580801	0.568743	-0.707684	-1.301836	0.462100	-0.593530	-1.208848	0.284346	-0.450852	-1.115860	3.554529	-3.292532	-8.274768	0.000000	0.000000	28.483511	13.411791	8.947684	17.333501	-3.773984	60.861077	33.921141	80.295158	8.951809	1.432706	15.530801	-8.918111	64.302026	42.271745	54.701846	-3.101424	-6.926702
0.016949	-0.732871	-3.180452	93.433913	0.180778	0.672711	0.841997	6.202324	-3.092904	5.661739	4.022604	0.070208	23.310715	1.455282	0.000000	7.180164	2.399253	7.734698	7.038000	0.122836	20.672123	-13.017171	0.000000	0.427300	-0.313182	-1.423383	0.793539	-0.416532	-1.512345	0.702011	-0.761470	-1.512345	0.488361	-0.761470	-1.245461	0.396791	-0.638640	-1.156499	0.244159	-0.485119	-1.067538	3.052160	-3.542776	-7.916432	0.000000	0.000000	28.204683	13.102634	7.437179	17.354259	-4.039928	60.984440	34.592297	78.046260	9.146560	1.773374	15.373092	-9.252530	63.237276	42.683135	57.931419	-1.984650	-6.456151
0.033898	-0.745603	-3.047314	93.338699	0.180565	0.672914	0.843367	6.683813	-3.269502	2.683917	5.014390	0.087518	24.666153	5.718029	0.000000	7.168851	2.450089	7.552164	7.236618	0.126303	20.665075	-12.859176	0.000000	0.366461	-0.332332	-1.368816	0.680554	-0.442002	-1.454367	0.602058	-0.808033	-1.454367	0.418828	-0.808033	-1.197714	0.340295	-0.677692	-1.112163	0.209396	-0.514783	-1.026612	2.617591	-3.759410	-7.612942	0.000000	0.000000	27.966198	12.842012	6.168405	17.402740	-4.242505	61.146347	35.096801	76.205080	9.288280	2.017652	15.266060	-9.507825	62.404842	42.989960	60.401392	-1.088659	-6.081572
0.050847	-0.760110	-2.917334	93.252566	0.180391	0.673097	0.844514	7.062026	-3.414756	0.322005	5.829209	0.101739	25.769160	9.085810	0.000000	7.127281	2.495126	7.396962	7.373010	0.128683	20.615576	-12.743584	0.000000	0.314517	-0.348587	-1.323424	0.584090	-0.463621	-1.406138	0.516720	-0.847555	-1.406138	0.359461	-0.847555	-1.157996	0.292060	-0.710839	-1.075282	0.179715	-0.539961	-0.992568	2.246564	-3.943287	-7.360487	0.000000	0.000000	27.765716	12.628819	5.124119	17.475837	-4.387925	61.340660	35.450921	74.743294	9.383505	2.175694	15.204332	-9.691908	61.782294	43.204188	62.185810	-0.394469	-5.788905
0.067797	-0.775129	-2.791437	93.175361	0.180254	0.673260	0.845457	7.347020	-3.530126	-1.480568	6.482120	0.113134	26.641606	11.641073	0.000000	7.060425	2.533607	7.266912	7.454981	0.130114	20.532204	-12.664037	0.000000	0.270873	-0.362021	-1.286523	0.503038	-0.481488	-1.366931	0.445017	-0.880219	-1.366931	0.309581	-0.880219	-1.125708	0.251533	-0.738234	-1.045300	0.154777	-0.560771	-0.964892	1.934818	-4.095258	-7.155255	0.000000	0.000000	27.600898	12.461951	4.287075	17.570446	-4.482398	61.561243	35.670925	73.632576	9.438775	2.257652	15.182532	-9.812691	61.347201	43.337787	63.358718	0.116905	-5.564092
0.084746	-0.789396	-2.670552	93.106928	0.180149	0.673403	0.846215	7.548852	-3.617073	-2.780372	6.988182	0.121967	27.305364	13.466264	0.000000	6.973259	2.564778	7.159833	7.490335	0.130731	20.423538	-12.614178	0.000000	0.234932	-0.372711	-1.257427	0.436292	-0.495705	-1.336017	0.385970	-0.906209	-1.336017	0.268504	-0.906209	-1.100249	0.218158	-0.760031	-1.021660	0.134240	-0.577329	-0.943071	1.678096	-4.216177	-6.993434	0.000000	0.000000	27.469404	12.340302	3.640030	17.683457	-4.532134	61.801959	35.773081	72.844602	9.460626	2.273678	15.195287	-9.878086	61.077135	43.402725	63.994159	0.464446	-5.393074
0.101695	-0.801646	-2.555605	93.047114	0.180075	0.673524	0.846805	7.677580	-3.677059	-3.633978	7.362454	0.128499	27.782305	14.643829	0.000000	6.870756	2.587880	7.073545	7.486878	0.130671	20.298158	-12.587648	0.000000	0.206098	-0.380730	-1.235452	0.382745	-0.506371	-1.312668	0.338599	-0.925707	-1.312668	0.235550	-0.925707	-1.081021	0.191383	-0.776385	-1.003805	0.117764	-0.589751	-0.926589	1.472138	-4.306896	-6.871214	0.000000	0.000000	27.368894	12.262768	3.165739	17.811766	-4.543344	62.056672	35.773657	72.351048	9.455598	2.233925	15.237223	-9.896004	60.949666	43.410968	64.166179	0.667140	-5.261792
0.118644	-0.810617	-2.447522	92.995763	0.180028	0.673624	0.847248	7.743261	-3.711543	-4.097955	7.619994	0.132994	28.094301	15.256215	0.000000	6.757889	2.602158	7.005869	7.452415	0.130069	20.164642	-12.578090	0.000000	0.183775	-0.386155	-1.219912	0.341288	-0.513587	-1.296156	0.301924	-0.938898	-1.296156	0.210036	-0.938898	-1.067423	0.170653	-0.787448	-0.991178	0.105009	-0.598155	-0.914934	1.312685	-4.368267	-6.784783	0.000000	0.000000	27.297029	12.228243	2.846959	17.952266	-4.522236	62.319245	35.688920	72.123589	9.430229	2.148545	15.302966	-9.874355	60.942363	43.374486	63.948821	0.743969	-5.156188
